PathFileType	4	(X/Y/Z)	13_2_21_p0_0-453.trc
DataRate	CameraRate	NumFrames	NumMarkers	Units	OrigDataRate	OrigDataStartFrame	OrigNumFrames
60.0	60.0	4	27	m	60.0	0	454
Frame#	Time	RHip			RKnee			RAnkle			RBigToe			RSmallToe			RHeel			LHip			LKnee			LAnkle			LBigToe			LSmallToe			LHeel			Neck			Head			Nose			RShoulder			RElbow			RWrist			RThumb			RIndex			RPinky			LShoulder			LElbow			LWrist			LThumb			LIndex			LPinky			
		X1	Y1	Z1	X2	Y2	Z2	X3	Y3	Z3	X4	Y4	Z4	X5	Y5	Z5	X6	Y6	Z6	X7	Y7	Z7	X8	Y8	Z8	X9	Y9	Z9	X10	Y10	Z10	X11	Y11	Z11	X12	Y12	Z12	X13	Y13	Z13	X14	Y14	Z14	X15	Y15	Z15	X16	Y16	Z16	X17	Y17	Z17	X18	Y18	Z18	X19	Y19	Z19	X20	Y20	Z20	X21	Y21	Z21	X22	Y22	Z22	X23	Y23	Z23	X24	Y24	Z24	X25	Y25	Z25	X26	Y26	Z26	X27	Y27	Z27	
0	0.0	0.3245037439921009	0.8382665018376846	0.636762139046079	0.2976383365615128	1.0730320199184202	1.0385119928400603	0.2851562215663461	1.2407804081130338	1.387641628007614	0.2638410795184324	1.0992956794798834	1.4627539689105036	0.3198291559455918	1.136541786611462	1.4534810875773172	0.2660167497080823	1.3581170732139354	1.449250052723597	0.12860835723797787	0.8459957765246591	0.6337356638568842	0.12489169630868825	1.0221149068159205	1.0414849808390945	0.11875155556899993	1.2838765251532633	1.4035373592772171	0.11240471546913078	1.1012402731673145	1.465422027734986	0.06421623778537261	1.1229926186088834	1.4424413451064042	0.1276329196449386	1.3759396825879435	1.4344547315496263	0.2217067674306139	0.6483142361734888	0.13068465138168128	0.2266093818788458	0.4911234138184139	-0.05248574621853503	0.22873286348569333	0.4814582585316056	0.06447814744565557	0.3718172220257168	0.724081328574858	0.19732019415975655	0.40187072176409877	0.7835803173232103	0.4679984681559421	0.26080501750869606	0.6783105071085974	0.6195718971684786	0.217035514437869	0.601459262972058	0.7108970711657339	0.21192386555454623	0.6307290628520785	0.7245233736572306	0.19574453019973603	0.694649215702955	0.7142979223517743	0.0686305240682988	0.7327405537486962	0.1845189646756831	0.04673112199851017	0.8104318595272999	0.4366680692789545	0.17068456930386636	0.6885974697181984	0.6148171033905405	0.22688801754892984	0.6124062019106821	0.6899830538204544	0.22946169455472804	0.6114867872119534	0.7187596420572472	0.20504550007497502	0.6757259488966666	0.7124633997875545
1	0.016666666666666666	0.3247521845422685	0.8382552670040778	0.6404839654216629	0.2970504900545311	1.0751085665860307	1.0426633361054105	0.285224090218463	1.2406030990103525	1.387609069103049	0.264079164682005	1.0992505721456844	1.462662563389511	0.320299649001246	1.1365492199061857	1.4533364789843004	0.26576767954392255	1.3583517817442554	1.4442348767765223	0.12860422783051792	0.845237497363315	0.6335939041605791	0.12562514626289445	1.020465954880933	1.037704432989937	0.1185321085753177	1.2829114617559878	1.4035516769786403	0.11470833638735574	1.0687593091537273	1.4590167510734722	0.0694441249985727	1.1044222162065231	1.4386338566965342	0.12761602364314997	1.375383165538681	1.4343011343348535	0.22170938480643906	0.6484958614414994	0.1306893313433104	0.22663475282984857	0.491073753242038	-0.05254506859900621	0.22871995918292473	0.48150977602601897	0.06454656127029813	0.36412868409589527	0.7251058818311382	0.1936302992911013	0.401808734404992	0.7837543382128375	0.4679157973612896	0.2611473411465805	0.6805381000737445	0.6198592170532798	0.22022770399973055	0.6023338218807208	0.713288336595955	0.21574372744779358	0.6313600468302597	0.7274140322095707	0.19594270576515882	0.6945573522852845	0.7175603920784284	0.068741227969951	0.7331411134276022	0.18444092233650822	0.046709618094013076	0.810901731270625	0.4367878812615446	0.17022466680440262	0.6864387782211072	0.6114138296493145	0.2271030119434631	0.6126582348137753	0.6899248797551245	0.22990215141135958	0.6114925051389384	0.7190214960854195	0.20066157005395205	0.6910775427724074	0.711543578251441
2	0.03333333333333333	0.324801297197561	0.838317453429731	0.6404636665972592	0.301538751579112	1.076027271218299	1.0427052020818002	0.2852429076273235	1.240735225349097	1.38766142976055	0.2635102330991031	1.1000950118195256	1.4590756575257207	0.3199204849444359	1.1377017384783117	1.4537062143245245	0.2657187107792339	1.358396807177767	1.4445851806190753	0.12848636049850998	0.8452587730582186	0.6337782095849895	0.12564060570856103	1.020227615496993	1.03771952980842	0.11854875230120515	1.2831695264687843	1.4035846615875052	0.11566150030095093	1.0669649544417994	1.4548084745656296	0.0642229662126595	1.121776517482547	1.4419144542107016	0.12729990324322063	1.3755926250535448	1.434766242515146	0.21780958468640088	0.6616506221680165	0.12768254692845665	0.2266058776944828	0.4910601878917909	-0.05257359150152199	0.22871495121537608	0.48154728374433176	0.06457802608197753	0.3641310263977442	0.7251523844080435	0.19361891620063806	0.3983030036883632	0.7983494123129783	0.46643266079429097	0.2613859465041516	0.6808307204411999	0.6234147225796487	0.22019502855795925	0.6021839429132169	0.7134940271966275	0.21556951471738983	0.6311991613842022	0.7275078797848815	0.19237389931852675	0.6951596697065859	0.7147510657600015	0.0686599873732857	0.7332175460287689	0.1844047148046565	0.04631443056814122	0.8084435626661721	0.43358232739981956	0.1702194566529789	0.6864395221571469	0.6114406496707742	0.22762426422598525	0.6144794546392967	0.6929747579169393	0.23007288483226193	0.6113787937736841	0.7225057446367209	0.20103087354090401	0.6905563763501897	0.7116105163916999
3	0.05	0.324803726312049	0.8384268231829994	0.6403860074692344	0.3017216700212694	1.07584425450333	1.0425100079925338	0.28519762162711143	1.2408001837994531	1.3876991190088268	0.263912108344453	1.1003504637514836	1.4628679538704283	0.31986588802615973	1.1376994543813808	1.453754031558941	0.2667650337004211	1.362804187209985	1.4501276732663488	0.12870481407694045	0.8460194576572395	0.6377197623529922	0.12579144946234416	1.020459484755363	1.037596522013733	0.118588600268242	1.282775650980089	1.4034164388891528	0.11565565974298403	1.0669646050285178	1.454654207897227	0.06433925974478712	1.1218935590251375	1.4418603378279888	0.1274015454006707	1.376132597441165	1.434904038964161	0.2176249643317841	0.6626989918713856	0.13114763274573227	0.22658221372480522	0.49108790939641656	-0.052597381161644266	0.22870135897538668	0.48157197340861463	0.0645839728629447	0.371789512739832	0.724137469000132	0.19722593957722928	0.3983129513012356	0.7983115027091156	0.46641270743407726	0.26143904992232203	0.6808435559479691	0.6234558042430405	0.22021795173849704	0.6022335817369966	0.7134016082065695	0.21555836915818602	0.631262039291564	0.7273668793692336	0.1923574022497149	0.6948370106778636	0.714845316957694	0.06854759530218953	0.7334609756339739	0.18447905093728648	0.04668018663366081	0.81079783568853	0.4368268028507428	0.1707241564239445	0.688542809744748	0.6149030257891293	0.22775871165020875	0.6145625822545325	0.692916824667081	0.23025237028040765	0.6116091528643488	0.7223965228014445	0.20584996907512634	0.6763889652233323	0.7120972704997787
